<?xml version="1.0" encoding="UTF-8" standalone="no"?>
<svg
   xmlns:dc="http://purl.org/dc/elements/1.1/"
   xmlns:cc="http://creativecommons.org/ns#"
   xmlns:rdf="http://www.w3.org/1999/02/22-rdf-syntax-ns#"
   xmlns:svg="http://www.w3.org/2000/svg"
   xmlns="http://www.w3.org/2000/svg"
   id="svg2"
   xml:space="preserve"
   enable-background="new 0 0 86 86"
   viewBox="0 0 86 86"
   height="86px"
   width="86px"
   y="0px"
   x="0px"
   version="1.1"><metadata
     id="metadata34"><rdf:RDF><cc:Work
         rdf:about=""><dc:format>image/svg+xml</dc:format><dc:type
           rdf:resource="http://purl.org/dc/dcmitype/StillImage" /><dc:title></dc:title></cc:Work></rdf:RDF></metadata><defs
     id="defs32"><radialGradient
       id="SVGID_1_"
       cx="43.2271"
       cy="42.8152"
       r="42.8006"
       gradientTransform="matrix(0.9977,0,0,0.9976,-0.1277,0.2876)"
       gradientUnits="userSpaceOnUse"><stop
         offset="0"
         style="stop-color:#7B7B7D"
         id="stop7" /><stop
         offset="1"
         style="stop-color:#DADADA"
         id="stop9" /></radialGradient><linearGradient
       id="SVGID_2_"
       gradientUnits="userSpaceOnUse"
       x1="11.1852"
       y1="95.7514"
       x2="145.4322"
       y2="-38.4956"><stop
         offset="0"
         style="stop-color:#81888B"
         id="stop20" /><stop
         offset="1"
         style="stop-color:#BAB8BA"
         id="stop22" /></linearGradient></defs><g
     display="none"
     id="Layer_2" /><path
     d="M 85.7,42.981 C 85.7,19.409 66.583,0.3 43,0.3 19.417,0.3 0.3,19.409 0.3,42.981 c 0,0.635 0.021,1.267 0.049,1.897 C 0.316,45.031 0.3,45.19 0.3,45.352 l 0,38.925 c 0,0.786 0.637,1.423 1.423,1.423 l 82.553,0 c 0.786,0 1.423,-0.637 1.423,-1.423 l 0,-38.925 c 0,-0.162 -0.016,-0.321 -0.049,-0.474 0.029,-0.63 0.05,-1.262 0.05,-1.897 z"
     id="path11"
     style="fill:url(#SVGID_1_)" /><path
     d="m 43.461,24.366 c -10.535,0 -19.108,8.569 -19.108,19.102 0,10.532 8.573,19.101 19.108,19.101 10.536,0 19.109,-8.569 19.109,-19.101 0,-10.533 -8.572,-19.102 -19.109,-19.102 z"
     id="path13"
     style="fill:#c4c4c4" /><g
     id="g15"><path
       d="m 24.072,45.868 0,-2.339 c 0,-10.462 8.516,-18.974 18.983,-18.974 10.467,0 18.983,8.511 18.983,18.974 l 0,2.339 12.987,0 0,-2.339 c 0,-17.621 -14.342,-31.956 -31.97,-31.956 -17.628,0 -31.97,14.336 -31.97,31.956 l 0,2.339 12.987,0 z"
       id="path17"
       style="fill:#88817f" /></g><path
     d="m 0.301,43.006 c 0,0.627 0.02,1.25 0.048,1.872 C 0.316,45.031 0.3,45.19 0.3,45.352 l 0,38.925 c 0,0.786 0.637,1.423 1.423,1.423 l 82.553,0 c 0.786,0 1.423,-0.637 1.423,-1.423 l 0,-38.925 c 0,-0.162 -0.016,-0.321 -0.049,-0.474 0.027,-0.621 0.047,-1.245 0.048,-1.872 l -85.397,0 z"
     id="path24"
     style="opacity:0.7;fill:url(#SVGID_2_)" /><path
     d="m 11.1,43.465903 0,42.234097 63.8,0 0,-42.234097 c 0,-0.523307 -0.274,-0.9784 -0.681,-1.232927 l -62.438,0 c -0.407,0.255545 -0.681,0.70962 -0.681,1.232927 z"
     id="path26"
     style="opacity:0.9;fill:#88817f;fill-opacity:1" /><g
     id="layer1"><rect
       y="42.954449"
       x="11.046081"
       height="43.293797"
       width="12.898704"
       id="rect3426"
       style="opacity:0;fill:#88817f;fill-opacity:1;fill-rule:evenodd;stroke:#000000;stroke-width:1;stroke-linecap:round;stroke-linejoin:round;stroke-miterlimit:4;stroke-dasharray:1, 1;stroke-dashoffset:0;stroke-opacity:0.37799042" /></g><rect
     y="41.93766"
     x="24.221403"
     height="43.675827"
     width="37.878155"
     id="rect4243"
     style="opacity:1;fill:#c4c4c4;fill-opacity:1;fill-rule:evenodd;stroke:none;stroke-width:1;stroke-linecap:round;stroke-linejoin:round;stroke-miterlimit:4;stroke-dasharray:1, 1;stroke-dashoffset:0;stroke-opacity:0.37799042" /><path
     id="path4245"
     d="m 24.234132,63.755442 c 0,-14.37162 0.04377,-21.792942 0.128838,-21.845518 0.07086,-0.04379 0.128837,-0.255522 0.128837,-0.470505 0,-0.584412 0.465808,-2.757266 0.839989,-3.918291 0.476386,-1.478157 1.586383,-3.679599 2.529296,-5.016323 0.449859,-0.637745 1.426681,-1.768909 2.170717,-2.513698 2.669512,-2.672218 5.565996,-4.223383 9.405119,-5.03676 1.945926,-0.412274 5.141454,-0.416508 7.184332,-0.0095 7.760563,1.546083 13.874648,7.79742 15.059543,15.397604 0.112313,0.7204 0.255343,1.41049 0.317843,1.533534 0.06429,0.12657 0.113639,9.651529 0.113639,21.934543 l 0,21.710825 -18.939077,0 -18.939076,0 0,-21.765892 z"
     style="opacity:1;fill:#999999;fill-opacity:1;fill-rule:evenodd;stroke:none;stroke-width:1;stroke-linecap:round;stroke-linejoin:round;stroke-miterlimit:4;stroke-dasharray:1, 1;stroke-dashoffset:0;stroke-opacity:0.37799042" /><g
     id="g3390"
     transform="matrix(0.31971094,0,0,-0.31971094,14.626288,86.35009)"><g
       id="g3392"
       transform="scale(0.1,0.1)"><path
         d="m 1094.88,1969.4 -159.368,0 0,135.98 172.188,0 c 26.52,0 48,21.52 48,48 0,26.53 -21.48,48.01 -48,48.01 l -440.399,0 c -26.52,0 -48,-21.48 -48,-48.01 0,-26.48 21.48,-48 48,-48 l 172.187,0 0,-135.98 -159.41,0 C 305.078,1969.4 0,1664.32 0,1289.32 L 0,629.871 C 0,416.898 173.281,243.621 386.289,243.621 l 141.289,0 C 442.93,189.09 364.922,141.43 291.762,99.7109 268.75,86.5508 260.738,57.25 273.871,34.1992 c 8.859,-15.5 25.078,-24.21092 41.75,-24.21092 8.051,0 16.219,2.03122 23.758,6.32032 C 448.121,78.3789 566.988,152.84 702.27,243.621 l 370.43,0 c 135.31,-90.781 254.14,-165.2421 362.92,-227.3124 7.5,-4.25 15.67,-6.32032 23.76,-6.32032 16.64,0 32.85,8.71092 41.71,24.21092 13.17,23.0508 5.12,52.3516 -17.89,65.5117 -73.12,41.7191 -151.17,89.3791 -235.82,143.9101 l 141.29,0 c 213.01,0 386.29,173.277 386.29,386.25 l 0,659.449 c 0.04,375 -305.08,680.08 -680.08,680.08 z m 584.1,-1339.529 c 0,-160.043 -130.23,-290.269 -290.31,-290.269 l -1002.342,0 c -160.078,0 -290.3085,130.226 -290.3085,290.269 l 0,659.449 c 0,322.07 262.0315,584.06 584.0585,584.06 l 414.802,0 c 322.07,0 584.1,-261.99 584.1,-584.06 l 0,-659.449 z"
         style="fill:#000000;fill-opacity:1;fill-rule:nonzero;stroke:none"
         id="path3394" /><path
         d="m 1291.56,1553.38 -808.119,0 c -119.031,0 -215.863,-96.83 -215.863,-215.86 l 0,-399.918 c 0,-26.481 21.481,-48 48.012,-48 l 1143.82,0 c 26.53,0 48.01,21.519 48.01,48 l 0,399.918 c 0,119.03 -96.83,215.86 -215.86,215.86 z m 119.85,-567.771 -1047.82,0 0,351.911 c 0,66.1 53.75,119.89 119.851,119.89 l 808.119,0 c 66.1,0 119.85,-53.79 119.85,-119.89 l 0,-351.911 z"
         style="fill:#000000;fill-opacity:1;fill-rule:nonzero;stroke:none"
         id="path3396" /><path
         d="m 487.461,509.012 c 0,-49.34 -39.961,-89.301 -89.262,-89.301 -49.328,0 -89.289,39.961 -89.289,89.301 0,49.297 39.961,89.297 89.289,89.297 49.301,0 89.262,-40 89.262,-89.297 z"
         style="fill:#000000;fill-opacity:1;fill-rule:nonzero;stroke:none"
         id="path3398" /><path
         d="m 1459.41,509.012 c 0,-49.34 -39.96,-89.301 -89.29,-89.301 -49.3,0 -89.26,39.961 -89.26,89.301 0,49.297 39.96,89.297 89.26,89.297 49.33,0 89.29,-40 89.29,-89.297 z"
         style="fill:#000000;fill-opacity:1;fill-rule:nonzero;stroke:none"
         id="path3400" /><path
         d="m 695.078,1665.38 384.842,0 c 26.49,0 47.97,21.52 47.97,48 0,26.53 -21.48,48.01 -47.97,48.01 l -384.842,0 c -26.488,0 -48.008,-21.48 -48.008,-48.01 0,-26.48 21.52,-48 48.008,-48 z"
         style="fill:#000000;fill-opacity:1;fill-rule:nonzero;stroke:none"
         id="path3402" /></g></g><path
     id="path4247"
     d="m 25.702057,75.331147 c -2.036581,-0.295155 -3.628439,-1.114088 -5.214631,-2.682682 -0.876389,-0.866666 -1.17961,-1.281497 -1.685218,-2.305528 -1.05863,-2.144101 -1.021859,-1.555896 -0.970536,-15.525924 0.05031,-13.695179 -0.0082,-12.751185 0.969013,-15.694648 0.855938,-2.57877 2.19196,-4.743809 4.238337,-6.868236 2.173595,-2.2565 4.61957,-3.806515 7.536682,-4.775993 2.798013,-0.929899 2.897192,-0.937366 12.44985,-0.937366 8.395657,0 8.592449,0.0059 10.047201,0.300728 7.618088,1.543969 13.327457,7.253152 14.880692,14.880199 0.216139,1.061311 0.235292,2.174449 0.235292,13.671107 l 0,12.515723 -0.358501,1.056733 c -0.854087,2.517535 -2.590627,4.49021 -4.922668,5.592047 -1.91055,0.902689 -0.695416,0.847994 -19.420911,0.87416 -10.022792,0.01401 -17.278146,-0.02692 -17.784602,-0.100324 z m 2.737028,-2.554507 c 1.204387,-0.501734 2.003665,-1.891572 1.814245,-3.154723 -0.128434,-0.856491 -0.753641,-1.701032 -1.5548,-2.100267 -1.994012,-0.993659 -4.188497,0.330572 -4.180184,2.522477 0.0041,0.961868 0.33351,1.705893 1.001112,2.258074 0.823297,0.680956 1.974746,0.868066 2.919627,0.474439 z M 59.632703,72.7322 c 0.734867,-0.333786 1.451521,-1.20778 1.642239,-2.002787 0.424457,-1.769318 -0.973737,-3.534172 -2.806582,-3.542588 -2.647073,-0.01216 -3.901607,3.208385 -1.965922,5.04675 0.771515,0.732727 2.13625,0.950118 3.130265,0.498625 z m 2.434236,-14.970227 c 0.798685,-0.413015 0.786148,-0.28446 0.786148,-8.065832 0,-7.818977 -0.0072,-7.895806 -0.82751,-9.439667 -0.78035,-1.467829 -2.135944,-2.617763 -3.859948,-3.274344 l -0.77993,-0.297039 -13.833176,-0.03856 c -9.663791,-0.02693 -14.091262,0.0053 -14.689503,0.10706 -2.568203,0.436725 -4.801137,2.500061 -5.486245,5.069535 -0.226314,0.848762 -0.261736,14.947022 -0.03865,15.363939 0.0771,0.144034 0.329041,0.377055 0.559916,0.517825 0.410416,0.250249 0.835589,0.255958 19.101072,0.256439 16.441249,3.96e-4 18.727663,-0.02347 19.067789,-0.199354 z M 50.297033,32.619147 c 0.433946,-0.473595 0.461791,-0.555191 0.40196,-1.177875 -0.05184,-0.540032 -0.144161,-0.740396 -0.478519,-1.039152 l -0.414241,-0.370123 -6.795936,0 -6.795935,0 -0.447935,0.447932 c -0.365485,0.365486 -0.447924,0.548554 -0.447924,0.994625 0,0.718561 0.280622,1.234359 0.816559,1.500843 0.388718,0.193287 1.140528,0.212913 7.065371,0.184449 l 6.630352,-0.03185 0.466248,-0.508846 z"
     style="opacity:1;fill:#00b400;fill-opacity:1;fill-rule:evenodd;stroke:none;stroke-width:1;stroke-linecap:round;stroke-linejoin:round;stroke-miterlimit:4;stroke-dasharray:1, 1;stroke-dashoffset:0;stroke-opacity:0.37799042" /><path
     id="path4249"
     d="m 26.275767,49.187829 c 4.3e-4,-3.407353 0.03835,-5.79789 0.09766,-6.163654 0.27053,-1.667302 1.557223,-2.931741 3.229383,-3.173533 0.858709,-0.124168 25.931151,-0.123223 26.808686,0.001 1.329549,0.188226 2.374518,0.968165 2.963802,2.212121 l 0.296707,0.626328 0.02649,6.031941 0.02648,6.031942 -16.724979,0 -16.72498,0 7.06e-4,-5.566155 z"
     style="opacity:0.75;fill:#4bc1dc;fill-opacity:1;fill-rule:evenodd;stroke:none;stroke-width:1;stroke-linecap:round;stroke-linejoin:round;stroke-miterlimit:4;stroke-dasharray:1, 1;stroke-dashoffset:0;stroke-opacity:0.37799042" /></svg>