<?xml version="1.0" encoding="UTF-8" standalone="no"?>
<svg
   xmlns:dc="http://purl.org/dc/elements/1.1/"
   xmlns:cc="http://creativecommons.org/ns#"
   xmlns:rdf="http://www.w3.org/1999/02/22-rdf-syntax-ns#"
   xmlns:svg="http://www.w3.org/2000/svg"
   xmlns="http://www.w3.org/2000/svg"
   version="1.1"
   x="0px"
   y="0px"
   width="86px"
   height="86px"
   viewBox="0 0 86 86"
   enable-background="new 0 0 86 86"
   xml:space="preserve"
   id="svg2"><metadata
     id="metadata34"><rdf:RDF><cc:Work
         rdf:about=""><dc:format>image/svg+xml</dc:format><dc:type
           rdf:resource="http://purl.org/dc/dcmitype/StillImage" /><dc:title></dc:title></cc:Work></rdf:RDF></metadata><defs
     id="defs32"><radialGradient
       gradientUnits="userSpaceOnUse"
       gradientTransform="matrix(0.9977,0,0,0.9976,-0.1277,0.2876)"
       r="42.8006"
       cy="42.8152"
       cx="43.2271"
       id="SVGID_1_"><stop
         id="stop7"
         style="stop-color:#7B7B7D"
         offset="0" /><stop
         id="stop9"
         style="stop-color:#DADADA"
         offset="1" /></radialGradient><linearGradient
       y2="-38.4956"
       x2="145.4322"
       y1="95.7514"
       x1="11.1852"
       gradientUnits="userSpaceOnUse"
       id="SVGID_2_"><stop
         id="stop20"
         style="stop-color:#81888B"
         offset="0" /><stop
         id="stop22"
         style="stop-color:#BAB8BA"
         offset="1" /></linearGradient></defs><g
     id="Layer_2"
     display="none" /><path
     style="fill:url(#SVGID_1_);opacity:0.33"
     id="path11"
     d="M 85.7,42.981 C 85.7,19.409 66.583,0.3 43,0.3 19.417,0.3 0.3,19.409 0.3,42.981 c 0,0.635 0.021,1.267 0.049,1.897 C 0.316,45.031 0.3,45.19 0.3,45.352 l 0,38.925 c 0,0.786 0.637,1.423 1.423,1.423 l 82.553,0 c 0.786,0 1.423,-0.637 1.423,-1.423 l 0,-38.925 c 0,-0.162 -0.016,-0.321 -0.049,-0.474 0.029,-0.63 0.05,-1.262 0.05,-1.897 z" /><g
     id="layer1"><rect
       style="opacity:0;fill:#88817f;fill-opacity:1;fill-rule:evenodd;stroke:#000000;stroke-width:1;stroke-linecap:round;stroke-linejoin:round;stroke-miterlimit:4;stroke-dasharray:1, 1;stroke-dashoffset:0;stroke-opacity:0.37799042"
       id="rect3426"
       width="12.898704"
       height="43.293797"
       x="11.046081"
       y="42.954449" /></g><g
     transform="matrix(0.31971094,0,0,-0.31971094,14.626288,80.35009)"
     id="g3390"
     style="fill:#ffffff"><g
       transform="scale(0.1,0.1)"
       id="g3392"
       style="fill:#ffffff"><path
         id="path3394"
         style="fill:#ffffff;fill-opacity:1;fill-rule:nonzero;stroke:none"
         d="m 1094.88,1969.4 -159.368,0 0,135.98 172.188,0 c 26.52,0 48,21.52 48,48 0,26.53 -21.48,48.01 -48,48.01 l -440.399,0 c -26.52,0 -48,-21.48 -48,-48.01 0,-26.48 21.48,-48 48,-48 l 172.187,0 0,-135.98 -159.41,0 C 305.078,1969.4 0,1664.32 0,1289.32 L 0,629.871 C 0,416.898 173.281,243.621 386.289,243.621 l 141.289,0 C 442.93,189.09 364.922,141.43 291.762,99.7109 268.75,86.5508 260.738,57.25 273.871,34.1992 c 8.859,-15.5 25.078,-24.21092 41.75,-24.21092 8.051,0 16.219,2.03122 23.758,6.32032 C 448.121,78.3789 566.988,152.84 702.27,243.621 l 370.43,0 c 135.31,-90.781 254.14,-165.2421 362.92,-227.3124 7.5,-4.25 15.67,-6.32032 23.76,-6.32032 16.64,0 32.85,8.71092 41.71,24.21092 13.17,23.0508 5.12,52.3516 -17.89,65.5117 -73.12,41.7191 -151.17,89.3791 -235.82,143.9101 l 141.29,0 c 213.01,0 386.29,173.277 386.29,386.25 l 0,659.449 c 0.04,375 -305.08,680.08 -680.08,680.08 z m 584.1,-1339.529 c 0,-160.043 -130.23,-290.269 -290.31,-290.269 l -1002.342,0 c -160.078,0 -290.3085,130.226 -290.3085,290.269 l 0,659.449 c 0,322.07 262.0315,584.06 584.0585,584.06 l 414.802,0 c 322.07,0 584.1,-261.99 584.1,-584.06 l 0,-659.449 z" /><path
         id="path3396"
         style="fill:#ffffff;fill-opacity:1;fill-rule:nonzero;stroke:none"
         d="m 1291.56,1553.38 -808.119,0 c -119.031,0 -215.863,-96.83 -215.863,-215.86 l 0,-399.918 c 0,-26.481 21.481,-48 48.012,-48 l 1143.82,0 c 26.53,0 48.01,21.519 48.01,48 l 0,399.918 c 0,119.03 -96.83,215.86 -215.86,215.86 z m 119.85,-567.771 -1047.82,0 0,351.911 c 0,66.1 53.75,119.89 119.851,119.89 l 808.119,0 c 66.1,0 119.85,-53.79 119.85,-119.89 l 0,-351.911 z" /><path
         id="path3398"
         style="fill:#ffffff;fill-opacity:1;fill-rule:nonzero;stroke:none"
         d="m 487.461,509.012 c 0,-49.34 -39.961,-89.301 -89.262,-89.301 -49.328,0 -89.289,39.961 -89.289,89.301 0,49.297 39.961,89.297 89.289,89.297 49.301,0 89.262,-40 89.262,-89.297 z" /><path
         id="path3400"
         style="fill:#ffffff;fill-opacity:1;fill-rule:nonzero;stroke:none"
         d="m 1459.41,509.012 c 0,-49.34 -39.96,-89.301 -89.29,-89.301 -49.3,0 -89.26,39.961 -89.26,89.301 0,49.297 39.96,89.297 89.26,89.297 49.33,0 89.29,-40 89.29,-89.297 z" /><path
         id="path3402"
         style="fill:#ffffff;fill-opacity:1;fill-rule:nonzero;stroke:none"
         d="m 695.078,1665.38 384.842,0 c 26.49,0 47.97,21.52 47.97,48 0,26.53 -21.48,48.01 -47.97,48.01 l -384.842,0 c -26.488,0 -48.008,-21.48 -48.008,-48.01 0,-26.48 21.52,-48 48.008,-48 z" /></g></g></svg>